<?xml version="1.0" encoding="utf-8"?>
<!-- Generator: Adobe Illustrator 23.0.3, SVG Export Plug-In . SVG Version: 6.00 Build 0)  -->
<svg version="1.1" id="Layer_1" xmlns="http://www.w3.org/2000/svg" xmlns:xlink="http://www.w3.org/1999/xlink" x="0px" y="0px"
	 width="239px" height="120px" viewBox="0 0 239 120" style="enable-background:new 0 0 239 120;" xml:space="preserve">
<style type="text/css">
	.st0{fill:url(#SVGID_1_);}
	.st1{fill:url(#SVGID_2_);}
	.st2{fill:url(#SVGID_3_);}
	.st3{fill:url(#SVGID_4_);}
	.st4{fill:url(#SVGID_5_);}
	.st5{fill:url(#SVGID_6_);}
	.st6{fill:url(#SVGID_7_);}
	.st7{fill:url(#SVGID_8_);}
	.st8{fill:url(#SVGID_9_);}
	.st9{fill:url(#SVGID_10_);}
	.st10{fill:url(#SVGID_11_);}
	.st11{fill:url(#SVGID_12_);}
	.st12{fill:url(#SVGID_13_);}
	.st13{fill:url(#SVGID_14_);}
	.st14{fill:url(#SVGID_15_);}
	.st15{fill:url(#SVGID_16_);}
	.st16{fill:url(#SVGID_17_);}
	.st17{fill:url(#SVGID_18_);}
	.st18{fill:url(#SVGID_19_);}
	.st19{fill:url(#SVGID_20_);}
	.st20{fill:url(#SVGID_21_);}
	.st21{fill:url(#SVGID_22_);}
	.st22{fill:url(#SVGID_23_);}
	.st23{fill:url(#SVGID_24_);}
	.st24{fill:url(#SVGID_25_);}
	.st25{fill:url(#SVGID_26_);}
	.st26{fill:url(#SVGID_27_);}
	.st27{fill:url(#SVGID_28_);}
	.st28{fill:url(#SVGID_29_);}
	.st29{fill:url(#SVGID_30_);}
	.st30{fill:url(#SVGID_31_);}
	.st31{fill:url(#SVGID_32_);}
	.st32{fill:#FFFFFF;}
	.st33{fill:url(#SVGID_33_);}
	.st34{fill:url(#SVGID_34_);}
	.st35{fill:url(#SVGID_35_);}
</style>
<g>
	<path class="st32" d="M47.1,93.3v-0.4l1.6-0.3V80.1h-2.8l-1.3,3.4h-0.5v-3.8h11.1v3.8h-0.5l-1.3-3.4h-2.8v12.6l1.6,0.3v0.4H47.1z"
		/>
	<path class="st32" d="M54.8,97.8l1.2-0.2V85l-1.2-0.2v-0.3h2.9v1.8c0.3-0.6,0.7-1.1,1.1-1.4c0.5-0.3,1.1-0.5,1.7-0.5
		c0.8,0,1.5,0.2,2.1,0.6c0.6,0.4,1.1,0.9,1.4,1.6c0.3,0.7,0.5,1.5,0.5,2.4s-0.2,1.7-0.5,2.4c-0.3,0.7-0.8,1.2-1.4,1.6
		c-0.6,0.4-1.3,0.6-2.1,0.6c-0.7,0-1.2-0.2-1.7-0.5c-0.5-0.3-0.9-0.8-1.1-1.4v6.1l1.6,0.2v0.3h-4.5V97.8z M62.7,89.8v-1.7
		c0-2.2-0.8-3.3-2.4-3.3c-0.5,0-1,0.1-1.4,0.4c-0.4,0.3-0.7,0.7-1,1.2c-0.2,0.5-0.4,1-0.4,1.6v1.8c0,0.6,0.1,1.1,0.3,1.6
		c0.2,0.5,0.6,0.9,1,1.2c0.4,0.3,0.9,0.5,1.4,0.5C61.9,93,62.7,92,62.7,89.8z"/>
	<path class="st32" d="M66.8,92.9c-0.5-0.4-0.7-0.9-0.7-1.7c0-1.1,0.4-1.8,1.3-2.3c0.9-0.4,1.9-0.7,3.1-0.7h1.1V87
		c0-0.6-0.1-1-0.2-1.4c-0.1-0.3-0.3-0.5-0.6-0.7c-0.3-0.1-0.6-0.2-1.1-0.2c-0.5,0-0.9,0.1-1.2,0.3c-0.3,0.2-0.4,0.5-0.4,0.8
		c0,0.3,0.2,0.5,0.5,0.6c0,0.3-0.1,0.5-0.3,0.7c-0.2,0.2-0.5,0.3-0.8,0.3c-0.3,0-0.6-0.1-0.8-0.3c-0.2-0.2-0.3-0.4-0.3-0.8
		c0-0.7,0.3-1.2,1-1.6s1.5-0.6,2.5-0.6c2.3,0,3.4,1,3.4,3v4.9c0,0.3,0.1,0.4,0.2,0.6s0.3,0.2,0.5,0.2c0.2,0,0.3-0.1,0.5-0.2
		s0.2-0.3,0.2-0.5H75c0,0.4-0.1,0.7-0.4,0.9s-0.6,0.3-1.1,0.3c-0.5,0-1-0.2-1.3-0.5c-0.4-0.3-0.5-0.8-0.6-1.4
		c-0.3,0.6-0.7,1-1.2,1.4s-1.2,0.5-1.9,0.5C67.9,93.5,67.3,93.3,66.8,92.9z M70.5,92.4c0.3-0.2,0.6-0.4,0.8-0.8
		c0.2-0.3,0.4-0.8,0.4-1.2v-1.8h-1.1c-0.9,0-1.6,0.2-2.1,0.6c-0.5,0.4-0.7,1-0.7,1.7c0,0.6,0.1,1.1,0.4,1.3c0.3,0.3,0.7,0.4,1.3,0.4
		C69.8,92.7,70.1,92.6,70.5,92.4z"/>
	<path class="st32" d="M75.4,93.3V93l1.2-0.2V85l-1.2-0.2v-0.3h3.9v0.3l-1,0.2v6.6l4.3-6.3V85l-1-0.2v-0.3h3.9v0.3L84.3,85v7.8
		l1.2,0.2v0.3h-3.9V93l1-0.2v-6.7l-4.3,6.3v0.4l1,0.2v0.3H75.4z M78.4,83c-0.6-0.3-0.9-0.8-0.9-1.4c0-0.3,0.1-0.5,0.3-0.7
		c0.2-0.2,0.4-0.3,0.7-0.3s0.5,0.1,0.7,0.3c0.2,0.2,0.3,0.4,0.3,0.7c-0.2,0.1-0.3,0.2-0.4,0.3C79.1,82,79,82.1,79,82.3
		c0,0.2,0.1,0.4,0.4,0.6S80,83,80.5,83c0.4,0,0.8-0.1,1.1-0.2c0.3-0.2,0.4-0.3,0.4-0.6c0-0.3-0.2-0.5-0.5-0.7c0-0.3,0.1-0.5,0.3-0.7
		c0.2-0.2,0.5-0.3,0.8-0.3c0.3,0,0.5,0.1,0.7,0.3c0.2,0.2,0.3,0.4,0.3,0.7c0,0.6-0.3,1.1-0.9,1.4c-0.6,0.3-1.3,0.5-2.1,0.5
		C79.6,83.4,78.9,83.3,78.4,83z"/>
	<path class="st32" d="M86.4,93.3V93l1.2-0.2V85l-1.2-0.2v-0.3h3.9v0.3l-1,0.2v3.6h4.2V85l-1-0.2v-0.3h3.9v0.3L95.2,85v7.8l1.2,0.2
		v0.3h-3.9V93l1-0.2V89h-4.2v3.7l1,0.2v0.3H86.4z"/>
	<path class="st32" d="M99.8,92.9c-0.7-0.4-1.2-0.9-1.6-1.6s-0.6-1.5-0.6-2.4c0-0.9,0.2-1.7,0.6-2.4c0.4-0.7,0.9-1.2,1.6-1.6
		c0.7-0.4,1.4-0.6,2.2-0.6c0.8,0,1.6,0.2,2.2,0.6c0.7,0.4,1.2,0.9,1.6,1.6c0.4,0.7,0.6,1.5,0.6,2.4c0,0.9-0.2,1.7-0.6,2.4
		c-0.4,0.7-0.9,1.2-1.6,1.6c-0.7,0.4-1.4,0.6-2.2,0.6C101.2,93.5,100.4,93.3,99.8,92.9z M103.9,92.2c0.4-0.6,0.6-1.4,0.6-2.4V88
		c0-1-0.2-1.8-0.6-2.4c-0.4-0.6-1.1-0.9-1.9-0.9s-1.5,0.3-1.9,0.9c-0.4,0.6-0.6,1.4-0.6,2.4v1.7c0,1,0.2,1.8,0.6,2.4
		c0.4,0.6,1.1,0.9,1.9,0.9S103.5,92.8,103.9,92.2z"/>
	<path class="st32" d="M110,92.9c-0.7-0.4-1.2-0.9-1.6-1.6s-0.6-1.5-0.6-2.4c0-0.9,0.2-1.8,0.6-2.4c0.4-0.7,1-1.2,1.6-1.6
		c0.7-0.4,1.4-0.5,2.2-0.5c0.6,0,1.2,0.1,1.8,0.3s1,0.5,1.3,0.9c0.3,0.4,0.5,0.8,0.5,1.3c0,0.4-0.1,0.7-0.3,0.9
		c-0.2,0.2-0.4,0.3-0.8,0.3c-0.3,0-0.6-0.1-0.8-0.3s-0.3-0.5-0.3-0.8c0.2-0.1,0.3-0.2,0.4-0.4c0.1-0.1,0.1-0.3,0.1-0.5
		c0-0.4-0.2-0.8-0.5-1c-0.3-0.3-0.8-0.4-1.3-0.4c-0.8,0-1.4,0.3-1.9,0.9c-0.4,0.6-0.7,1.4-0.7,2.5v1.7c0,1,0.2,1.8,0.6,2.4
		c0.4,0.6,1.1,0.9,1.9,0.9c0.8,0,1.4-0.2,2-0.7c0.6-0.4,0.9-1,1.1-1.7h0.4c-0.2,0.8-0.6,1.5-1.2,2s-1.4,0.7-2.3,0.7
		C111.4,93.5,110.7,93.3,110,92.9z"/>
	<path class="st32" d="M118.8,93.3V93l1.4-0.2v-7.9h-1.5l-1.5,2.8h-0.5l0.3-3.2h8l0.3,3.2h-0.5l-1.5-2.8h-1.4v7.9l1.4,0.2v0.3H118.8
		z"/>
	<path class="st32" d="M125.7,95.8c0.3-0.2,0.6-0.5,0.9-0.9c0.3-0.4,0.4-0.7,0.4-1.1c0-0.1,0-0.2-0.1-0.2c-0.1-0.1-0.1-0.1-0.3-0.1
		c-0.3,0-0.5-0.1-0.7-0.3c-0.2-0.2-0.3-0.4-0.3-0.7c0-0.3,0.1-0.5,0.3-0.7s0.4-0.3,0.7-0.3c0.4,0,0.7,0.1,0.9,0.4s0.3,0.7,0.3,1.1
		c0,0.6-0.2,1.2-0.5,1.7c-0.3,0.5-0.9,0.9-1.6,1.3L125.7,95.8z"/>
	<path class="st32" d="M133.3,93.3V93l1.2-0.2V85l-1.2-0.2v-0.3h4.1v0.3l-1.2,0.2v7.9h3.3V85l-1.2-0.2v-0.3h4.1v0.3l-1.2,0.2v7.9
		h3.3V85l-1.2-0.2v-0.3h4.1v0.3l-1.2,0.2v7.8l1.2,0.2v0.3H133.3z"/>
	<path class="st32" d="M148.4,93.2c-0.2-0.2-0.3-0.5-0.3-0.9c0-0.3,0.1-0.6,0.3-0.7s0.4-0.3,0.7-0.3c0.2,0,0.3,0,0.5,0.1
		c0.1,0.1,0.2,0.2,0.3,0.2c0.1,0.1,0.1,0.1,0.1,0.2c-0.1,0.1-0.2,0.3-0.2,0.4c0,0.2,0.1,0.3,0.3,0.3c0.8,0,1.2-1.6,1.4-4.9l0.1-2
		l-1.5-0.7v-0.3h7.6v0.3l-1.2,0.2v7.8l1.2,0.2v0.4h-4v-0.4l1.1-0.2v-7.9H152l-0.1,2.7c-0.1,1.4-0.2,2.5-0.4,3.3
		c-0.2,0.8-0.5,1.5-0.8,1.9s-0.8,0.6-1.3,0.6C149,93.5,148.7,93.4,148.4,93.2z"/>
	<path class="st32" d="M161.1,92.9c-0.7-0.4-1.2-0.9-1.6-1.6c-0.4-0.7-0.6-1.5-0.6-2.4c0-0.9,0.2-1.7,0.6-2.4
		c0.4-0.7,0.9-1.2,1.6-1.6c0.7-0.4,1.4-0.6,2.2-0.6c0.7,0,1.4,0.2,1.9,0.5c0.6,0.3,1,0.8,1.3,1.3c0.3,0.6,0.5,1.2,0.5,1.9h-6.3v1.7
		c0,1,0.2,1.8,0.7,2.4c0.4,0.6,1.1,0.9,1.9,0.9c0.8,0,1.5-0.2,2.1-0.7s1-1,1.1-1.7h0.4c-0.2,0.8-0.6,1.5-1.2,2s-1.4,0.7-2.4,0.7
		C162.5,93.5,161.8,93.3,161.1,92.9z M165.1,87.6c0-1-0.2-1.7-0.5-2.2c-0.3-0.5-0.8-0.7-1.4-0.7c-0.8,0-1.3,0.3-1.8,0.8
		c-0.4,0.5-0.7,1.2-0.7,2.1H165.1z"/>
	<path class="st32" d="M168.1,93.3V93l1.2-0.2V85l-1.2-0.2v-0.3h3.9v0.3l-1,0.2v6.6l4.3-6.3V85l-1-0.2v-0.3h3.9v0.3L177,85v7.8
		l1.2,0.2v0.3h-3.9V93l1-0.2v-6.7l-4.3,6.3v0.4l1,0.2v0.3H168.1z M171.1,83c-0.6-0.3-0.9-0.8-0.9-1.4c0-0.3,0.1-0.5,0.3-0.7
		c0.2-0.2,0.4-0.3,0.7-0.3s0.5,0.1,0.7,0.3c0.2,0.2,0.3,0.4,0.3,0.7c-0.2,0.1-0.3,0.2-0.4,0.3c-0.1,0.1-0.1,0.2-0.1,0.4
		c0,0.2,0.1,0.4,0.4,0.6s0.6,0.2,1.1,0.2c0.4,0,0.8-0.1,1.1-0.2c0.3-0.2,0.4-0.3,0.4-0.6c0-0.3-0.2-0.5-0.5-0.7
		c0-0.3,0.1-0.5,0.3-0.7c0.2-0.2,0.5-0.3,0.8-0.3c0.3,0,0.5,0.1,0.7,0.3c0.2,0.2,0.3,0.4,0.3,0.7c0,0.6-0.3,1.1-0.9,1.4
		c-0.6,0.3-1.3,0.5-2.1,0.5C172.4,83.4,171.7,83.3,171.1,83z"/>
	<path class="st32" d="M183,97.8l1.2-0.2v-4.1c-0.9,0-1.7-0.2-2.4-0.6c-0.7-0.4-1.3-0.9-1.7-1.6c-0.4-0.7-0.6-1.5-0.6-2.4
		c0-0.9,0.2-1.7,0.6-2.4c0.4-0.7,1-1.2,1.7-1.6c0.7-0.4,1.5-0.6,2.4-0.6v-4.1L183,80v-0.3h2.9v4.6c0.9,0,1.7,0.2,2.4,0.6
		c0.7,0.4,1.3,0.9,1.7,1.6c0.4,0.7,0.6,1.5,0.6,2.4c0,0.9-0.2,1.7-0.6,2.4c-0.4,0.7-1,1.2-1.7,1.6c-0.7,0.4-1.5,0.6-2.4,0.6v4.1
		l1.2,0.2v0.3H183V97.8z M184.2,84.7c-0.9,0-1.6,0.3-2.1,0.9c-0.5,0.6-0.8,1.4-0.8,2.4v1.7c0,1,0.3,1.8,0.8,2.4
		c0.5,0.6,1.2,0.9,2.1,0.9V84.7z M188,92.2c0.5-0.6,0.8-1.4,0.8-2.4V88c0-1-0.3-1.8-0.8-2.4c-0.5-0.6-1.2-0.9-2.1-0.9v8.4
		C186.8,93.1,187.5,92.8,188,92.2z"/>
	<path class="st32" d="M192.2,95.8c0.3-0.2,0.6-0.5,0.9-0.9c0.3-0.4,0.4-0.7,0.4-1.1c0-0.1,0-0.2-0.1-0.2c-0.1-0.1-0.1-0.1-0.3-0.1
		c-0.3,0-0.5-0.1-0.7-0.3c-0.2-0.2-0.3-0.4-0.3-0.7c0-0.3,0.1-0.5,0.3-0.7s0.4-0.3,0.7-0.3c0.4,0,0.7,0.1,0.9,0.4s0.3,0.7,0.3,1.1
		c0,0.6-0.2,1.2-0.5,1.7c-0.3,0.5-0.9,0.9-1.6,1.3L192.2,95.8z"/>
	<path class="st32" d="M59.5,113.7v-0.3l1.2-0.2v-7.8l-1.2-0.2v-0.3h3.9v0.3l-1,0.2v6.6l4.3-6.3v-0.3l-1-0.2v-0.3h3.9v0.3l-1.2,0.2
		v7.8l1.2,0.2v0.3h-3.9v-0.3l1-0.2v-6.7l-4.3,6.3v0.4l1,0.2v0.3H59.5z"/>
	<path class="st32" d="M70.5,113.7v-0.3l1.2-0.2v-7.8l-1.2-0.2v-0.3h3.9v0.3l-1,0.2v3.6h4.2v-3.6l-1-0.2v-0.3h3.9v0.3l-1.2,0.2v7.8
		l1.2,0.2v0.3h-3.9v-0.3l1-0.2v-3.7h-4.2v3.7l1,0.2v0.3H70.5z"/>
	<path class="st32" d="M83.4,113.7v-0.3l1.4-0.2v-7.9h-1.5l-1.5,2.8h-0.5l0.3-3.2h8l0.3,3.2h-0.5l-1.5-2.8h-1.4v7.9l1.4,0.2v0.3
		H83.4z"/>
	<path class="st32" d="M93.1,113.3c-0.7-0.4-1.2-0.9-1.6-1.6c-0.4-0.7-0.6-1.5-0.6-2.4s0.2-1.7,0.6-2.4s0.9-1.2,1.6-1.6
		c0.7-0.4,1.4-0.6,2.2-0.6c0.7,0,1.4,0.2,1.9,0.5c0.6,0.3,1,0.8,1.3,1.3s0.5,1.2,0.5,1.9h-6.3v1.7c0,1,0.2,1.8,0.7,2.4
		s1.1,0.9,1.9,0.9c0.8,0,1.5-0.2,2.1-0.7c0.6-0.4,1-1,1.1-1.7H99c-0.2,0.8-0.6,1.5-1.2,2c-0.6,0.5-1.4,0.7-2.4,0.7
		C94.6,113.9,93.8,113.7,93.1,113.3z M97.2,108c0-1-0.2-1.7-0.5-2.2c-0.3-0.5-0.8-0.7-1.4-0.7c-0.8,0-1.3,0.3-1.8,0.8
		c-0.4,0.5-0.7,1.2-0.7,2.1H97.2z"/>
	<path class="st32" d="M100.2,113.7v-0.3l1.2-0.2v-7.8l-1.2-0.2v-0.3h3.9v0.3l-1,0.2v3.6h4.2v-3.6l-1-0.2v-0.3h3.9v0.3l-1.2,0.2v7.8
		l1.2,0.2v0.3h-3.9v-0.3l1-0.2v-3.7h-4.2v3.7l1,0.2v0.3H100.2z"/>
	<path class="st32" d="M112.1,113.3c-0.6-0.4-0.9-0.8-0.9-1.4c0-0.3,0.1-0.6,0.3-0.8c0.2-0.2,0.5-0.3,0.8-0.3c0.2,0,0.4,0.1,0.6,0.2
		s0.3,0.3,0.4,0.5c-0.2,0.2-0.3,0.5-0.3,0.7c0,0.4,0.2,0.7,0.5,1c0.3,0.3,0.8,0.4,1.4,0.4c0.7,0,1.2-0.2,1.6-0.5
		c0.4-0.4,0.6-0.9,0.6-1.6v-0.2c0-0.6-0.2-1.1-0.7-1.4s-1-0.5-1.7-0.5h-1v-0.4h1c0.6,0,1.1-0.2,1.5-0.5c0.3-0.3,0.5-0.8,0.5-1.4V107
		c0-1.3-0.6-1.9-1.8-1.9c-0.6,0-1.2,0.2-1.8,0.5l-1,2.4h-0.4l0.2-3.2l1,0.5c0.6-0.3,1.3-0.5,2-0.5c1.3,0,2.2,0.2,2.8,0.6
		c0.6,0.4,0.9,0.9,0.9,1.7c0,0.5-0.2,1-0.6,1.3c-0.4,0.4-1,0.6-1.8,0.7v0c0.9,0.1,1.6,0.3,2.1,0.7c0.5,0.4,0.7,0.9,0.7,1.6
		c0,0.8-0.3,1.4-1,1.9s-1.7,0.7-3.1,0.7C113.6,113.9,112.7,113.7,112.1,113.3z"/>
	<path class="st32" d="M120.1,113.7v-0.3l1.2-0.2v-7.8l-1.2-0.2v-0.3h3.9v0.3l-1,0.2v6.6l4.3-6.3v-0.3l-1-0.2v-0.3h3.9v0.3l-1.2,0.2
		v7.8l1.2,0.2v0.3h-3.9v-0.3l1-0.2v-6.7l-4.3,6.3v0.4l1,0.2v0.3H120.1z"/>
	<path class="st32" d="M131.1,113.4l1.2-0.2v-7.8l-1.2-0.2v-0.3h4.7c1.2,0,2,0.2,2.5,0.5c0.5,0.3,0.7,0.8,0.7,1.6c0,1.1-0.7,1.7-2,2
		v0.1c1.7,0.2,2.6,1,2.6,2.3c0,0.8-0.3,1.4-0.9,1.8c-0.6,0.4-1.4,0.6-2.4,0.6h-5.2V113.4z M135.4,108.9c0.6,0,1-0.2,1.4-0.5
		c0.3-0.3,0.5-0.8,0.5-1.4V107c0-0.6-0.2-1-0.5-1.2s-0.8-0.4-1.4-0.4H134v3.6H135.4z M135.8,113.3c0.6,0,1.1-0.2,1.4-0.5
		c0.3-0.3,0.5-0.8,0.5-1.4v-0.1c0-0.6-0.2-1.1-0.5-1.5c-0.3-0.3-0.8-0.5-1.5-0.5H134v4H135.8z"/>
	<path class="st32" d="M140.7,113.7v-0.3l1.2-0.2v-7.8l-1.2-0.2v-0.3h3.9v0.3l-1,0.2v3.6h4.2v-3.6l-1-0.2v-0.3h3.9v0.3l-1.2,0.2v7.8
		l1.2,0.2v0.3h-3.9v-0.3l1-0.2v-3.7h-4.2v3.7l1,0.2v0.3H140.7z"/>
	<path class="st32" d="M154,113.3c-0.7-0.4-1.2-0.9-1.6-1.6s-0.6-1.5-0.6-2.4c0-0.9,0.2-1.7,0.6-2.4c0.4-0.7,0.9-1.2,1.6-1.6
		c0.7-0.4,1.4-0.6,2.2-0.6c0.8,0,1.6,0.2,2.2,0.6c0.7,0.4,1.2,0.9,1.6,1.6c0.4,0.7,0.6,1.5,0.6,2.4c0,0.9-0.2,1.7-0.6,2.4
		c-0.4,0.7-0.9,1.2-1.6,1.6c-0.7,0.4-1.4,0.6-2.2,0.6C155.5,113.9,154.7,113.7,154,113.3z M158.2,112.6c0.4-0.6,0.6-1.4,0.6-2.4
		v-1.7c0-1-0.2-1.8-0.6-2.4c-0.4-0.6-1.1-0.9-1.9-0.9s-1.5,0.3-1.9,0.9c-0.4,0.6-0.6,1.4-0.6,2.4v1.7c0,1,0.2,1.8,0.6,2.4
		c0.4,0.6,1.1,0.9,1.9,0.9S157.7,113.2,158.2,112.6z"/>
	<path class="st32" d="M164.3,113.3c-0.7-0.4-1.2-0.9-1.6-1.6s-0.6-1.5-0.6-2.4c0-0.9,0.2-1.8,0.6-2.4c0.4-0.7,1-1.2,1.6-1.6
		c0.7-0.4,1.4-0.5,2.2-0.5c0.6,0,1.2,0.1,1.8,0.3s1,0.5,1.3,0.9c0.3,0.4,0.5,0.8,0.5,1.3c0,0.4-0.1,0.7-0.3,0.9
		c-0.2,0.2-0.4,0.3-0.8,0.3c-0.3,0-0.6-0.1-0.8-0.3c-0.2-0.2-0.3-0.5-0.3-0.8c0.2-0.1,0.3-0.2,0.4-0.4c0.1-0.1,0.1-0.3,0.1-0.5
		c0-0.4-0.2-0.8-0.5-1c-0.3-0.3-0.8-0.4-1.3-0.4c-0.8,0-1.4,0.3-1.9,0.9s-0.7,1.4-0.7,2.5v1.7c0,1,0.2,1.8,0.6,2.4
		c0.4,0.6,1.1,0.9,1.9,0.9c0.8,0,1.4-0.2,2-0.7c0.6-0.4,0.9-1,1.1-1.7h0.4c-0.2,0.8-0.6,1.5-1.2,2c-0.6,0.5-1.4,0.7-2.3,0.7
		C165.7,113.9,165,113.7,164.3,113.3z"/>
	<path class="st32" d="M173.1,113.7v-0.3l1.4-0.2v-7.9H173l-1.5,2.8h-0.5l0.3-3.2h8l0.3,3.2h-0.5l-1.5-2.8h-1.4v7.9l1.4,0.2v0.3
		H173.1z"/>
</g>
<g>
	<linearGradient id="SVGID_1_" gradientUnits="userSpaceOnUse" x1="119.4967" y1="-1" x2="119.4967" y2="58.3043">
		<stop  offset="2.216749e-02" style="stop-color:#B68637"/>
		<stop  offset="0.3695" style="stop-color:#F0BD78"/>
		<stop  offset="1" style="stop-color:#B68637"/>
	</linearGradient>
	<path class="st0" d="M121.2,31.6c-1.2,0-2.4,0-3.5,0c-0.2,0.1-0.4,0.2-0.6,0.3c-0.6,0.5-0.8,1.5-0.4,2.2c0.3,0.5,0.7,0.8,1.3,0.8
		c1,0,2,0,2.9,0c0.3,0,0.6-0.1,0.8-0.3c0.5-0.5,0.7-1,0.6-1.7C122.3,32.2,121.9,31.8,121.2,31.6z"/>
	<linearGradient id="SVGID_2_" gradientUnits="userSpaceOnUse" x1="119.4936" y1="-1" x2="119.4936" y2="58.3043">
		<stop  offset="2.216749e-02" style="stop-color:#B68637"/>
		<stop  offset="0.3695" style="stop-color:#F0BD78"/>
		<stop  offset="1" style="stop-color:#B68637"/>
	</linearGradient>
	<path class="st1" d="M117.8,35.5c0,0.2,0,0.4,0.3,0.5c0.1,0,0.2,0.1,0.2,0.1c0.4,0.2,0.9,0.3,1.3,0.3c0.5,0,1-0.3,1.4-0.6
		c0,0,0.1-0.1,0.1-0.1c0-0.2,0-0.3,0-0.5c-1.1,0-2.2,0-3.3,0C117.8,35.3,117.8,35.4,117.8,35.5z"/>
	<linearGradient id="SVGID_3_" gradientUnits="userSpaceOnUse" x1="119.5" y1="-1" x2="119.5" y2="58.3043">
		<stop  offset="2.216749e-02" style="stop-color:#B68637"/>
		<stop  offset="0.3695" style="stop-color:#F0BD78"/>
		<stop  offset="1" style="stop-color:#B68637"/>
	</linearGradient>
	<path class="st2" d="M146.4,56.7c-0.2-0.1-0.5-0.1-0.7-0.1c-2.5,0-5.1,0-7.6,0c-0.2,0-0.4,0-0.7,0c0-0.3,0-0.6,0-0.8
		c0-11.6,0-23.3,0-34.9c0-0.2,0-0.4,0-0.6c0-0.7-0.5-1.1-1.1-1.1c-0.5,0-0.9,0-1.4,0c-0.3,0-0.5-0.1-0.5-0.4c-0.8-4.4-3.2-7.6-7-9.7
		c-2.4-1.3-4.8-2.7-6.8-4.6c-0.5-0.5-1.1-0.5-1.6,0c-2,1.9-4.3,3.1-6.7,4.3c-3.9,2-6.5,5-7.5,9.4c-0.3,1.1-0.2,1.1-1.4,1.1
		c-1.4,0-1.7,0.3-1.7,1.8c0,11.6,0,23.3,0,34.9c0,0.2,0,0.5,0,0.8c-0.3,0-0.5,0-0.7,0c-2.5,0-5.1,0-7.6,0c-0.2,0-0.5,0-0.7,0.1
		c-0.5,0.1-0.9,0.5-0.9,1.1c0,0.6,0.3,1,0.9,1.1c0.3,0.1,0.6,0.1,0.9,0.1c17.4,0,34.7,0,52.1,0c0.3,0,0.6,0,0.9-0.1
		c0.6-0.1,0.9-0.5,0.8-1.1C147.2,57.2,146.9,56.9,146.4,56.7z M131.3,53.4c-3.6,0-7.1,0-10.6,0c3-0.8,5.3-2.3,6-5.8
		c-1.1,0-2.1,0-3.1,0c1.1-1.1,2.2-2.2,3-3.6c0.6-0.9,1-1.9,1.2-3c0.5-2.5-1.1-4.9-3.5-5.3c-1.2-0.2-2.3,0-3.3,0.6
		c-0.7,0.5-1.5,0.6-2.4,0.3c-0.2-0.1-0.4-0.2-0.7-0.3c-2.5-1.6-5.8-0.3-6.7,2.5c-0.3,1-0.2,2,0.1,3c0.4,1.2,1,2.3,1.8,3.3
		c0.7,0.9,1.5,1.8,2.3,2.5c-1,0-2,0-3,0c-0.2,2.4,2.3,4.7,6,5.8c-3.6,0-7.1,0-10.7,0c0-9.5,0-19,0-28.6c0.9,0,1.7,0,2.6,0
		c0-0.7,0.1-1.2,0.1-1.8c0.1-1.2,0-2.3,0.2-3.5c0.5-2.7,2.1-4.6,4.5-5.9c1.4-0.7,2.8-1.5,4.2-2.2c0.2-0.1,0.5-0.1,0.7,0
		c1.2,0.7,2.4,1.4,3.7,2.1c3,1.5,4.7,3.9,4.8,7.3c0,1,0.1,2.1,0.1,3.1c0,0.3,0,0.5,0.1,0.8c0.9,0,1.7,0,2.6,0
		C131.3,34.3,131.3,43.8,131.3,53.4z"/>
</g>
</svg>
