<?xml version="1.0" encoding="utf-8"?>
<!-- Generator: Adobe Illustrator 23.0.3, SVG Export Plug-In . SVG Version: 6.00 Build 0)  -->
<svg version="1.1" id="Layer_1" xmlns="http://www.w3.org/2000/svg" xmlns:xlink="http://www.w3.org/1999/xlink" x="0px" y="0px"
	 width="239px" height="120px" viewBox="0 0 239 120" style="enable-background:new 0 0 239 120;" xml:space="preserve">
<style type="text/css">
	.st0{fill:url(#SVGID_1_);}
	.st1{fill:url(#SVGID_2_);}
	.st2{fill:url(#SVGID_3_);}
	.st3{fill:url(#SVGID_4_);}
	.st4{fill:url(#SVGID_5_);}
	.st5{fill:url(#SVGID_6_);}
	.st6{fill:url(#SVGID_7_);}
	.st7{fill:url(#SVGID_8_);}
	.st8{fill:url(#SVGID_9_);}
	.st9{fill:url(#SVGID_10_);}
	.st10{fill:url(#SVGID_11_);}
	.st11{fill:url(#SVGID_12_);}
	.st12{fill:url(#SVGID_13_);}
	.st13{fill:url(#SVGID_14_);}
	.st14{fill:url(#SVGID_15_);}
	.st15{fill:url(#SVGID_16_);}
	.st16{fill:url(#SVGID_17_);}
	.st17{fill:url(#SVGID_18_);}
	.st18{fill:url(#SVGID_19_);}
	.st19{fill:url(#SVGID_20_);}
	.st20{fill:url(#SVGID_21_);}
	.st21{fill:url(#SVGID_22_);}
	.st22{fill:url(#SVGID_23_);}
	.st23{fill:url(#SVGID_24_);}
	.st24{fill:url(#SVGID_25_);}
	.st25{fill:url(#SVGID_26_);}
	.st26{fill:url(#SVGID_27_);}
	.st27{fill:url(#SVGID_28_);}
	.st28{fill:url(#SVGID_29_);}
	.st29{fill:url(#SVGID_30_);}
	.st30{fill:url(#SVGID_31_);}
	.st31{fill:url(#SVGID_32_);}
	.st32{fill:#FFFFFF;}
	.st33{fill:url(#SVGID_33_);}
	.st34{fill:url(#SVGID_34_);}
	.st35{fill:url(#SVGID_35_);}
</style>
<g>
	<linearGradient id="SVGID_1_" gradientUnits="userSpaceOnUse" x1="119.5" y1="-1" x2="119.5" y2="58.3043">
		<stop  offset="2.216749e-02" style="stop-color:#B68637"/>
		<stop  offset="0.3695" style="stop-color:#F0BD78"/>
		<stop  offset="1" style="stop-color:#B68637"/>
	</linearGradient>
	<path class="st0" d="M128.1,57.2c-5.8,0-11.5,0-17.3,0c-0.6-0.3-1.3-0.5-1.8-0.9c-3.1-2.8-6-5.8-8.5-9.2c-2.2-3-4.2-6.2-5.2-9.8
		c-0.9-2.9-1.1-5.9-0.2-8.9c2.5-8.4,12.4-12,19.8-7.4c0.6,0.4,1.3,0.8,2,1c2.5,0.9,4.8,0.5,7-0.9c3-1.9,6.3-2.5,9.7-1.8
		c7.4,1.5,12,8.5,10.6,15.9c-0.6,3.2-1.9,6.1-3.6,8.8c-2.7,4.4-6.1,8.1-9.8,11.6C130,56.2,129.2,56.9,128.1,57.2z M119.5,31
		c-0.2-0.2-0.3-0.3-0.4-0.5c-1.7-2.2-4.7-3-7.3-2.1c-2.6,0.9-4.4,3.4-4.4,6.1c0,2.1,0.7,4,1.8,5.8c2.5,4,6.1,7,9.9,9.7
		c0.3,0.2,0.6,0.1,0.8-0.1c0.7-0.5,1.4-1,2.1-1.6c2.7-2.2,5.3-4.5,7.2-7.4c1.2-1.8,2.2-3.8,2.3-6.1c0.2-4-3.3-7.3-7.2-6.8
		C122.3,28.4,120.8,29.3,119.5,31z"/>
	<linearGradient id="SVGID_2_" gradientUnits="userSpaceOnUse" x1="119.4901" y1="-1" x2="119.4901" y2="58.3043">
		<stop  offset="2.216749e-02" style="stop-color:#B68637"/>
		<stop  offset="0.3695" style="stop-color:#F0BD78"/>
		<stop  offset="1" style="stop-color:#B68637"/>
	</linearGradient>
	<path class="st1" d="M124.7,6.8c2,0.6,3.1,2,3.5,4c0.4,2-0.3,3.7-1.8,5.1c-0.7,0.6-1.4,0.9-2.3,0.9c-2.9,0-5.8-0.1-8.7,0
		c-1.9,0-3.1-0.8-3.9-2.4c-1.3-2.2-0.8-5.1,1.2-6.7c0.5-0.4,1.1-0.6,1.6-0.9C117.7,6.8,121.2,6.8,124.7,6.8z"/>
	<linearGradient id="SVGID_3_" gradientUnits="userSpaceOnUse" x1="119.481" y1="-1" x2="119.481" y2="58.3043">
		<stop  offset="2.216749e-02" style="stop-color:#B68637"/>
		<stop  offset="0.3695" style="stop-color:#F0BD78"/>
		<stop  offset="1" style="stop-color:#B68637"/>
	</linearGradient>
	<path class="st2" d="M114.6,17.9c3.3,0,6.6,0,9.9,0c0,0.5,0,1,0,1.5c0,0.1-0.1,0.2-0.2,0.3c-1.3,0.8-2.6,1.6-4.2,1.7
		c-1.4,0.1-2.8-0.2-4-0.9c-0.2-0.1-0.5-0.3-0.7-0.4c-0.7-0.3-1-0.8-0.8-1.5C114.6,18.3,114.6,18.1,114.6,17.9z"/>
</g>
<g>
	<path class="st32" d="M59.1,92.7c-0.9-0.6-1.6-1.4-2.2-2.5c-0.5-1.1-0.8-2.3-0.8-3.7s0.3-2.6,0.8-3.7c0.5-1.1,1.2-1.9,2.2-2.5
		c0.9-0.6,2-0.9,3.3-0.9c0.5,0,1,0.1,1.5,0.3c0.5,0.2,1,0.4,1.4,0.7l1.1-1h0.4v4.2h-0.4l-1.1-2.6c-0.4-0.4-0.9-0.7-1.4-0.9
		s-1-0.3-1.6-0.3c-0.8,0-1.5,0.2-2.1,0.6c-0.6,0.4-1.1,1-1.4,1.8c-0.3,0.8-0.5,1.7-0.5,2.8V88c0,1.1,0.2,2,0.5,2.8
		c0.3,0.8,0.8,1.4,1.4,1.8c0.6,0.4,1.3,0.6,2.1,0.6c0.6,0,1.2-0.1,1.7-0.4c0.6-0.3,1.1-0.6,1.4-1l1-2.7h0.4v4.4h-0.4l-1.2-0.9
		c-0.4,0.3-0.9,0.6-1.4,0.8c-0.5,0.2-1,0.3-1.5,0.3C61.1,93.6,60,93.3,59.1,92.7z"/>
	<path class="st32" d="M70.3,93.3V93l1.4-0.2v-7.9h-1.5l-1.5,2.8h-0.5l0.3-3.2h8l0.3,3.2h-0.5l-1.5-2.8h-1.4v7.9l1.4,0.2v0.3H70.3z"
		/>
	<path class="st32" d="M77.6,93.3V93l1.2-0.2V85l-1.2-0.2v-0.3h3.9v0.3l-1,0.2v6.6l4.3-6.3V85l-1-0.2v-0.3h3.9v0.3L86.5,85v7.8
		l1.2,0.2v0.3h-3.9V93l1-0.2v-6.7l-4.3,6.3v0.4l1,0.2v0.3H77.6z"/>
	<path class="st32" d="M88.8,93.2c-0.2-0.2-0.3-0.5-0.3-0.9c0-0.3,0.1-0.6,0.3-0.7s0.4-0.3,0.7-0.3c0.2,0,0.3,0,0.5,0.1
		c0.1,0.1,0.2,0.2,0.3,0.2c0.1,0.1,0.1,0.1,0.1,0.2c-0.1,0.1-0.2,0.3-0.2,0.4c0,0.2,0.1,0.3,0.3,0.3c0.8,0,1.2-1.6,1.4-4.9l0.1-2
		l-1.5-0.7v-0.3H98v0.3L96.8,85v7.8l1.2,0.2v0.4h-4v-0.4l1.1-0.2v-7.9h-2.8l-0.1,2.7c-0.1,1.4-0.2,2.5-0.4,3.3
		c-0.2,0.8-0.5,1.5-0.8,1.9s-0.8,0.6-1.3,0.6C89.3,93.5,89,93.4,88.8,93.2z"/>
	<path class="st32" d="M101.4,92.9c-0.7-0.4-1.2-0.9-1.6-1.6c-0.4-0.7-0.6-1.5-0.6-2.4c0-0.9,0.2-1.7,0.6-2.4
		c0.4-0.7,0.9-1.2,1.6-1.6c0.7-0.4,1.4-0.6,2.2-0.6c0.7,0,1.4,0.2,1.9,0.5c0.6,0.3,1,0.8,1.3,1.3c0.3,0.6,0.5,1.2,0.5,1.9h-6.3v1.7
		c0,1,0.2,1.8,0.7,2.4c0.4,0.6,1.1,0.9,1.9,0.9c0.8,0,1.5-0.2,2.1-0.7s1-1,1.1-1.7h0.4c-0.2,0.8-0.6,1.5-1.2,2s-1.4,0.7-2.4,0.7
		C102.9,93.5,102.1,93.3,101.4,92.9z M105.5,87.6c0-1-0.2-1.7-0.5-2.2c-0.3-0.5-0.8-0.7-1.4-0.7c-0.8,0-1.3,0.3-1.8,0.8
		c-0.4,0.5-0.7,1.2-0.7,2.1H105.5z"/>
	<path class="st32" d="M108.5,93.3V93l1.2-0.2V85l-1.2-0.2v-0.3h3.9v0.3l-1,0.2v3.6h4.2V85l-1-0.2v-0.3h3.9v0.3l-1.2,0.2v7.8
		l1.2,0.2v0.3h-3.9V93l1-0.2V89h-4.2v3.7l1,0.2v0.3H108.5z"/>
	<path class="st32" d="M132,96.1h-0.5l-1.5-2.8h-5.5l-1.5,2.8h-0.5l0.3-3.2h0.5c0.2,0,0.5-0.1,0.7-0.3c0.2-0.2,0.4-0.5,0.6-0.9
		c0.2-0.4,0.3-0.8,0.4-1.4c0.1-0.6,0.2-1.4,0.3-2.6l0.1-2l-1.5-0.7v-0.3h7.7v0.3l-1.2,0.2v7.9h1.2L132,96.1z M128.9,84.9h-2.8
		l-0.2,2.7c-0.1,1.2-0.2,2.1-0.3,2.7s-0.2,1.1-0.4,1.4c-0.1,0.3-0.2,0.5-0.3,0.6s-0.2,0.3-0.3,0.4s-0.1,0.1-0.2,0.2h4.5V84.9z"/>
	<path class="st32" d="M132.6,93.3V93l1.2-0.2V85l-1.2-0.2v-0.3h3.9v0.3l-1,0.2v6.6l4.3-6.3V85l-1-0.2v-0.3h3.9v0.3l-1.2,0.2v7.8
		l1.2,0.2v0.3h-3.9V93l1-0.2v-6.7l-4.3,6.3v0.4l1,0.2v0.3H132.6z"/>
	<path class="st32" d="M144.6,92.9c-0.6-0.4-0.9-0.8-0.9-1.4c0-0.3,0.1-0.6,0.3-0.8c0.2-0.2,0.5-0.3,0.8-0.3c0.2,0,0.4,0.1,0.6,0.2
		s0.3,0.3,0.4,0.5c-0.2,0.2-0.3,0.5-0.3,0.7c0,0.4,0.2,0.7,0.5,1c0.3,0.3,0.8,0.4,1.4,0.4c0.7,0,1.2-0.2,1.6-0.5
		c0.4-0.4,0.6-0.9,0.6-1.6v-0.2c0-0.6-0.2-1.1-0.7-1.4c-0.5-0.3-1-0.5-1.7-0.5h-1v-0.4h1c0.6,0,1.1-0.2,1.5-0.5
		c0.3-0.3,0.5-0.8,0.5-1.4v-0.1c0-1.3-0.6-1.9-1.8-1.9c-0.6,0-1.2,0.2-1.8,0.5l-1,2.4h-0.4l0.2-3.2l1,0.5c0.6-0.3,1.3-0.5,2-0.5
		c1.3,0,2.2,0.2,2.8,0.6c0.6,0.4,0.9,0.9,0.9,1.7c0,0.5-0.2,1-0.6,1.3s-1,0.6-1.8,0.7v0c0.9,0.1,1.6,0.3,2.1,0.7
		c0.5,0.4,0.7,0.9,0.7,1.6c0,0.8-0.3,1.4-1,1.9c-0.7,0.4-1.7,0.7-3.1,0.7C146.1,93.5,145.2,93.3,144.6,92.9z"/>
	<path class="st32" d="M153.7,92.9c-0.5-0.4-0.7-0.9-0.7-1.7c0-1.1,0.4-1.8,1.3-2.3c0.9-0.4,1.9-0.7,3.1-0.7h1.1V87
		c0-0.6-0.1-1-0.2-1.4c-0.1-0.3-0.3-0.5-0.6-0.7c-0.3-0.1-0.6-0.2-1.1-0.2c-0.5,0-0.9,0.1-1.2,0.3c-0.3,0.2-0.4,0.5-0.4,0.8
		c0,0.3,0.2,0.5,0.5,0.6c0,0.3-0.1,0.5-0.3,0.7c-0.2,0.2-0.5,0.3-0.8,0.3c-0.3,0-0.6-0.1-0.8-0.3c-0.2-0.2-0.3-0.4-0.3-0.8
		c0-0.7,0.3-1.2,1-1.6s1.5-0.6,2.5-0.6c2.3,0,3.4,1,3.4,3v4.9c0,0.3,0.1,0.4,0.2,0.6s0.3,0.2,0.5,0.2c0.2,0,0.3-0.1,0.5-0.2
		s0.2-0.3,0.2-0.5h0.4c0,0.4-0.1,0.7-0.4,0.9s-0.6,0.3-1.1,0.3c-0.5,0-1-0.2-1.3-0.5c-0.4-0.3-0.5-0.8-0.6-1.4
		c-0.3,0.6-0.7,1-1.2,1.4s-1.2,0.5-1.9,0.5C154.7,93.5,154.1,93.3,153.7,92.9z M157.3,92.4c0.3-0.2,0.6-0.4,0.8-0.8
		c0.2-0.3,0.4-0.8,0.4-1.2v-1.8h-1.1c-0.9,0-1.6,0.2-2.1,0.6c-0.5,0.4-0.7,1-0.7,1.7c0,0.6,0.1,1.1,0.4,1.3c0.3,0.3,0.7,0.4,1.3,0.4
		C156.7,92.7,157,92.6,157.3,92.4z"/>
	<path class="st32" d="M162.3,93.3V93l1.2-0.2V85l-1.2-0.2v-0.3h3.9v0.3l-1,0.2v6.6l4.3-6.3V85l-1-0.2v-0.3h3.9v0.3l-1.2,0.2v7.8
		l1.2,0.2v0.3h-3.9V93l1-0.2v-6.7l-4.3,6.3v0.4l1,0.2v0.3H162.3z M165.2,83c-0.6-0.3-0.9-0.8-0.9-1.4c0-0.3,0.1-0.5,0.3-0.7
		c0.2-0.2,0.4-0.3,0.7-0.3s0.5,0.1,0.7,0.3c0.2,0.2,0.3,0.4,0.3,0.7c-0.2,0.1-0.3,0.2-0.4,0.3c-0.1,0.1-0.1,0.2-0.1,0.4
		c0,0.2,0.1,0.4,0.4,0.6s0.6,0.2,1.1,0.2c0.4,0,0.8-0.1,1.1-0.2c0.3-0.2,0.4-0.3,0.4-0.6c0-0.3-0.2-0.5-0.5-0.7
		c0-0.3,0.1-0.5,0.3-0.7c0.2-0.2,0.5-0.3,0.8-0.3c0.3,0,0.5,0.1,0.7,0.3c0.2,0.2,0.3,0.4,0.3,0.7c0,0.6-0.3,1.1-0.9,1.4
		c-0.6,0.3-1.3,0.5-2.1,0.5C166.5,83.4,165.8,83.3,165.2,83z"/>
	<path class="st32" d="M173.3,93.3V93l1.2-0.2V85l-1.2-0.2v-0.3h3.9v0.3l-1,0.2v3.6h4.2V85l-1-0.2v-0.3h3.9v0.3l-1.2,0.2v7.8
		l1.2,0.2v0.3h-3.9V93l1-0.2V89h-4.2v3.7l1,0.2v0.3H173.3z"/>
	<path class="st32" d="M63,113.7v-0.3l1.2-0.2v-7.8l-1.2-0.2v-0.3h3.9v0.3l-1,0.2v3.6h4.2v-3.6l-1-0.2v-0.3h3.9v0.3l-1.2,0.2v7.8
		l1.2,0.2v0.3H69v-0.3l1-0.2v-3.7h-4.2v3.7l1,0.2v0.3H63z"/>
	<path class="st32" d="M74.9,113.3c-0.5-0.4-0.7-0.9-0.7-1.7c0-1.1,0.4-1.8,1.3-2.3c0.9-0.4,1.9-0.7,3.1-0.7h1.1v-1.3
		c0-0.6-0.1-1-0.2-1.4c-0.1-0.3-0.3-0.5-0.6-0.7c-0.3-0.1-0.6-0.2-1.1-0.2c-0.5,0-0.9,0.1-1.2,0.3c-0.3,0.2-0.4,0.5-0.4,0.8
		c0,0.3,0.2,0.5,0.5,0.6c0,0.3-0.1,0.5-0.3,0.7c-0.2,0.2-0.5,0.3-0.8,0.3c-0.3,0-0.6-0.1-0.8-0.3c-0.2-0.2-0.3-0.4-0.3-0.8
		c0-0.7,0.3-1.2,1-1.6s1.5-0.6,2.5-0.6c2.3,0,3.4,1,3.4,3v4.9c0,0.3,0.1,0.4,0.2,0.6c0.1,0.1,0.3,0.2,0.5,0.2c0.2,0,0.3-0.1,0.5-0.2
		c0.1-0.1,0.2-0.3,0.2-0.5h0.4c0,0.4-0.1,0.7-0.4,0.9s-0.6,0.3-1.1,0.3c-0.5,0-1-0.2-1.3-0.4c-0.4-0.3-0.5-0.8-0.6-1.4
		c-0.3,0.6-0.7,1-1.2,1.4s-1.2,0.5-1.9,0.5C75.9,113.9,75.3,113.7,74.9,113.3z M78.5,112.8c0.3-0.2,0.6-0.4,0.8-0.8
		c0.2-0.3,0.4-0.8,0.4-1.2V109h-1.1c-0.9,0-1.6,0.2-2.1,0.6s-0.7,1-0.7,1.7c0,0.6,0.1,1.1,0.4,1.3c0.3,0.3,0.7,0.4,1.3,0.4
		C77.9,113.1,78.2,113,78.5,112.8z"/>
	<path class="st32" d="M89.2,112.4c-0.8-1-1.3-2.4-1.3-4.4c0-2.2,0.4-3.9,1.3-5s2-1.7,3.6-1.7h1.4c0.6,0,1-0.1,1.3-0.3
		s0.4-0.5,0.4-0.9h0.4c0,0.7-0.1,1.3-0.2,1.7c-0.2,0.4-0.4,0.7-0.7,0.9c-0.3,0.2-0.8,0.3-1.4,0.3h-1.4c-2.7,0-4,1.7-4,5h0.1
		c0.2-1,0.7-1.7,1.4-2.3c0.7-0.6,1.5-0.9,2.5-0.9c0.8,0,1.5,0.2,2.1,0.6c0.6,0.4,1.2,0.9,1.5,1.6c0.4,0.7,0.6,1.5,0.6,2.3
		s-0.2,1.7-0.6,2.3c-0.4,0.7-0.9,1.2-1.5,1.6s-1.3,0.6-2.1,0.6C91.2,113.9,90.1,113.4,89.2,112.4z M94.3,112.6
		c0.4-0.6,0.6-1.4,0.6-2.4v-1.7c0-1-0.2-1.8-0.6-2.4c-0.4-0.6-1-0.9-1.8-0.9c-0.8,0-1.4,0.3-1.8,0.9c-0.4,0.6-0.6,1.4-0.6,2.4v1.7
		c0,1,0.2,1.8,0.6,2.4s1,0.9,1.8,0.9C93.3,113.5,93.9,113.2,94.3,112.6z"/>
	<path class="st32" d="M97.7,118.2c-0.4-0.3-0.5-0.7-0.5-1.2c0-0.3,0.1-0.6,0.3-0.8c0.2-0.2,0.4-0.3,0.7-0.3c0.2,0,0.4,0,0.6,0.1
		c0.2,0.1,0.3,0.2,0.4,0.4c-0.2,0.2-0.3,0.5-0.3,0.7c0,0.2,0.1,0.4,0.2,0.6c0.1,0.1,0.3,0.2,0.6,0.2c0.3,0,0.5-0.1,0.7-0.3
		c0.2-0.2,0.4-0.5,0.5-1l1-2.9l-3.9-8.4l-1.1-0.2v-0.3h4.2v0.3l-1.2,0.2l2.8,6.1l2-5.8l-1.5-0.4v-0.3h3.1v0.3l-1.2,0.4l-3.8,11.1
		c-0.2,0.7-0.5,1.2-0.9,1.5c-0.3,0.3-0.8,0.5-1.4,0.5C98.6,118.7,98.1,118.5,97.7,118.2z"/>
	<path class="st32" d="M108.6,113.7v-0.3l1.4-0.2v-7.9h-1.5l-1.5,2.8h-0.5l0.3-3.2h8l0.3,3.2h-0.5l-1.5-2.8h-1.4v7.9l1.4,0.2v0.3
		H108.6z"/>
	<path class="st32" d="M115.9,113.7v-0.3l1.2-0.2v-7.8l-1.2-0.2v-0.3h3.9v0.3l-1,0.2v6.6l4.3-6.3v-0.3l-1-0.2v-0.3h3.9v0.3l-1.2,0.2
		v7.8l1.2,0.2v0.3h-3.9v-0.3l1-0.2v-6.7l-4.3,6.3v0.4l1,0.2v0.3H115.9z"/>
	<path class="st32" d="M127.1,113.6c-0.2-0.2-0.3-0.5-0.3-0.8c0-0.3,0.1-0.6,0.3-0.7c0.2-0.2,0.4-0.3,0.7-0.3c0.2,0,0.3,0,0.5,0.1
		c0.1,0.1,0.2,0.2,0.3,0.2c0.1,0.1,0.1,0.1,0.1,0.2c-0.1,0.1-0.2,0.3-0.2,0.4c0,0.2,0.1,0.3,0.3,0.3c0.8,0,1.2-1.6,1.4-4.9l0.1-2
		l-1.5-0.7v-0.3h7.6v0.3l-1.2,0.2v7.8l1.2,0.2v0.4h-4v-0.4l1.1-0.2v-7.9h-2.8l-0.1,2.7c-0.1,1.4-0.2,2.5-0.4,3.3
		c-0.2,0.8-0.5,1.5-0.8,1.9c-0.3,0.4-0.8,0.6-1.3,0.6C127.6,113.9,127.3,113.8,127.1,113.6z"/>
	<path class="st32" d="M144.1,113.6c-0.2-0.2-0.4-0.6-0.5-1.1l-0.3-1.8c-0.1-0.5-0.3-0.9-0.5-1.1c-0.2-0.2-0.6-0.3-1-0.3h-1.6v3.9
		l1.2,0.2v0.3h-4.1v-0.3l1.2-0.2v-7.8l-1.2-0.2v-0.4h4.1v0.4l-1.2,0.2v3.4h1.6c0.3,0,0.5-0.1,0.7-0.3c0.2-0.2,0.3-0.5,0.4-0.9
		l0.3-1.2c0.1-0.6,0.3-1,0.6-1.2s0.6-0.4,1.1-0.4c0.4,0,0.7,0.1,1,0.3c0.2,0.2,0.3,0.5,0.3,0.8c0,0.3-0.1,0.5-0.3,0.8
		c-0.2,0.2-0.4,0.3-0.8,0.3c-0.2,0-0.3,0-0.5-0.1c0-0.1,0.1-0.2,0.1-0.3c0-0.1,0-0.3-0.1-0.4c-0.1-0.1-0.2-0.2-0.3-0.2
		c-0.3,0-0.5,0.2-0.5,0.5l-0.3,1.2c-0.1,0.5-0.3,0.9-0.6,1.1c0.7,0.1,1.3,0.3,1.6,0.5c0.3,0.3,0.6,0.7,0.7,1.3l0.3,1.5
		c0.1,0.4,0.2,0.6,0.2,0.7c0.1,0.1,0.2,0.2,0.4,0.2c0.2,0,0.4-0.1,0.6-0.3l0.3,0.3c-0.2,0.2-0.5,0.4-0.8,0.6
		c-0.3,0.1-0.6,0.2-0.9,0.2C144.7,113.9,144.3,113.8,144.1,113.6z"/>
	<path class="st32" d="M147.2,113.7v-0.3l1.2-0.2v-7.8l-1.2-0.2v-0.3h3.9v0.3l-1,0.2v6.6l4.3-6.3v-0.3l-1-0.2v-0.3h3.9v0.3l-1.2,0.2
		v7.8l1.2,0.2v0.3h-3.9v-0.3l1-0.2v-6.7l-4.3,6.3v0.4l1,0.2v0.3H147.2z"/>
	<path class="st32" d="M160.1,113.7v-0.3l1.4-0.2v-7.9H160l-1.5,2.8h-0.5l0.3-3.2h8l0.3,3.2h-0.5l-1.5-2.8h-1.4v7.9l1.4,0.2v0.3
		H160.1z"/>
	<path class="st32" d="M169.9,113.3c-0.7-0.4-1.2-0.9-1.6-1.6c-0.4-0.7-0.6-1.5-0.6-2.4s0.2-1.7,0.6-2.4s0.9-1.2,1.6-1.6
		c0.7-0.4,1.4-0.6,2.2-0.6c0.7,0,1.4,0.2,1.9,0.5c0.6,0.3,1,0.8,1.3,1.3s0.5,1.2,0.5,1.9h-6.3v1.7c0,1,0.2,1.8,0.7,2.4
		s1.1,0.9,1.9,0.9c0.8,0,1.5-0.2,2.1-0.7c0.6-0.4,1-1,1.1-1.7h0.4c-0.2,0.8-0.6,1.5-1.2,2c-0.6,0.5-1.4,0.7-2.4,0.7
		C171.3,113.9,170.6,113.7,169.9,113.3z M173.9,108c0-1-0.2-1.7-0.5-2.2c-0.3-0.5-0.8-0.7-1.4-0.7c-0.8,0-1.3,0.3-1.8,0.8
		c-0.4,0.5-0.7,1.2-0.7,2.1H173.9z"/>
</g>
</svg>
