<?xml version="1.0" encoding="utf-8"?>
<!-- Generator: Adobe Illustrator 23.0.3, SVG Export Plug-In . SVG Version: 6.00 Build 0)  -->
<svg version="1.1" id="Layer_1" xmlns="http://www.w3.org/2000/svg" xmlns:xlink="http://www.w3.org/1999/xlink" x="0px" y="0px"
	 width="239px" height="120px" viewBox="0 0 239 120" style="enable-background:new 0 0 239 120;" xml:space="preserve">
<style type="text/css">
	.st0{fill:url(#SVGID_1_);}
	.st1{fill:url(#SVGID_2_);}
	.st2{fill:url(#SVGID_3_);}
	.st3{fill:url(#SVGID_4_);}
	.st4{fill:url(#SVGID_5_);}
	.st5{fill:url(#SVGID_6_);}
	.st6{fill:url(#SVGID_7_);}
	.st7{fill:url(#SVGID_8_);}
	.st8{fill:url(#SVGID_9_);}
	.st9{fill:url(#SVGID_10_);}
	.st10{fill:url(#SVGID_11_);}
	.st11{fill:url(#SVGID_12_);}
	.st12{fill:url(#SVGID_13_);}
	.st13{fill:url(#SVGID_14_);}
	.st14{fill:url(#SVGID_15_);}
	.st15{fill:url(#SVGID_16_);}
	.st16{fill:url(#SVGID_17_);}
	.st17{fill:url(#SVGID_18_);}
	.st18{fill:url(#SVGID_19_);}
	.st19{fill:url(#SVGID_20_);}
	.st20{fill:url(#SVGID_21_);}
	.st21{fill:url(#SVGID_22_);}
	.st22{fill:url(#SVGID_23_);}
	.st23{fill:url(#SVGID_24_);}
	.st24{fill:url(#SVGID_25_);}
	.st25{fill:url(#SVGID_26_);}
	.st26{fill:url(#SVGID_27_);}
	.st27{fill:url(#SVGID_28_);}
	.st28{fill:url(#SVGID_29_);}
	.st29{fill:url(#SVGID_30_);}
	.st30{fill:url(#SVGID_31_);}
	.st31{fill:url(#SVGID_32_);}
	.st32{fill:#FFFFFF;}
	.st33{fill:url(#SVGID_33_);}
	.st34{fill:url(#SVGID_34_);}
	.st35{fill:url(#SVGID_35_);}
</style>
<g>
	<linearGradient id="SVGID_1_" gradientUnits="userSpaceOnUse" x1="119.5" y1="-1" x2="119.5" y2="58.3043">
		<stop  offset="2.216749e-02" style="stop-color:#B68637"/>
		<stop  offset="0.3695" style="stop-color:#F0BD78"/>
		<stop  offset="1" style="stop-color:#B68637"/>
	</linearGradient>
	<path class="st0" d="M120.1,5.2c0.7,0.3,1.4,0.5,2,0.9c0.6,0.5,1,1.1,1.4,1.8c1.6,3.4,4.6,4.8,8.3,3.9c2.2-0.5,4.1,0.3,5,2.2
		c0.6,1.2,0.6,2.4,0,3.6c-0.6,1.2-1.1,2.4-1,3.7c0.1,2.2,0.9,4,2.7,5.3c0.9,0.7,1.7,1.5,2,2.7c0.5,2.3-0.9,4.6-3.1,5
		c-1.6,0.3-3,0.9-4.1,2.1c-1.3,1.4-2,3.1-1.9,5c0.1,1.6-0.4,2.9-1.7,3.9c-1.6,1.2-3.6,1.1-5.1-0.1c-1.1-0.9-2.3-1.7-3.8-1.9
		c-2-0.3-3.8,0.2-5.4,1.5c-0.8,0.6-1.6,1.2-2.6,1.3c-2.4,0.3-4.7-1.6-4.7-4c0-1.4-0.1-2.8-0.8-4.1c-1.1-1.9-2.7-3.1-4.8-3.5
		c-1.9-0.4-3.2-1.4-3.6-3.3c-0.4-1.6,0.1-3.1,1.4-4.1c1.1-0.9,2.1-1.8,2.7-3.2c0.8-2,0.8-4-0.2-5.9c-0.8-1.4-0.9-2.9-0.1-4.3
		c0.9-1.7,2.7-2.5,4.6-2.1c1.5,0.4,3,0.5,4.5,0c1.8-0.6,3.2-1.7,3.9-3.4c0.7-1.7,1.8-2.8,3.6-3.2C119.3,5.2,119.7,5.2,120.1,5.2z
		 M119.5,40.4c7.6,0,13.9-6.3,13.8-13.8c-0.1-7.6-6.2-13.7-13.8-13.8c-7.6,0-13.8,6.2-13.8,13.8C105.7,34.1,111.9,40.4,119.5,40.4z"
		/>
	<linearGradient id="SVGID_2_" gradientUnits="userSpaceOnUse" x1="110.5845" y1="-1" x2="110.5845" y2="58.3043">
		<stop  offset="2.216749e-02" style="stop-color:#B68637"/>
		<stop  offset="0.3695" style="stop-color:#F0BD78"/>
		<stop  offset="1" style="stop-color:#B68637"/>
	</linearGradient>
	<path class="st1" d="M111.7,58.8c-0.2-0.2-0.4-0.4-0.5-0.6c-0.3-0.6-0.6-1.3-1-2c-0.8-1.6-2.3-2.3-4-1.8c-0.8,0.2-1.5,0.5-2.3,0.6
		c-0.2,0-0.6,0-0.7-0.2c-0.1-0.2-0.2-0.5-0.1-0.8c1.1-2.5,2.3-5.1,3.4-7.5c0.7,0.5,1.3,1.1,2.1,1.5c2.5,1.4,5.3,1.1,7.5-0.6
		c0.6-0.5,1.1-1,2-1.2c-0.1,0.2-0.1,0.3-0.2,0.5c-1.7,3.8-3.4,7.6-5.2,11.4c-0.1,0.3-0.4,0.5-0.6,0.7
		C112,58.8,111.9,58.8,111.7,58.8z"/>
	<linearGradient id="SVGID_3_" gradientUnits="userSpaceOnUse" x1="128.4745" y1="-1" x2="128.4745" y2="58.3043">
		<stop  offset="2.216749e-02" style="stop-color:#B68637"/>
		<stop  offset="0.3695" style="stop-color:#F0BD78"/>
		<stop  offset="1" style="stop-color:#B68637"/>
	</linearGradient>
	<path class="st2" d="M126.8,58.8c-0.2-0.2-0.4-0.3-0.5-0.5c-1.8-3.9-3.6-7.9-5.4-11.9c0-0.1,0-0.1,0-0.3c0.5,0.3,1,0.5,1.4,0.9
		c1,0.8,2,1.5,3.2,1.7c2.5,0.5,4.6-0.2,6.4-1.9c0.1-0.1,0.2-0.2,0.3-0.3c0,0,0,0,0.1,0c0.1,0.1,0.2,0.3,0.2,0.4
		c1,2.3,2.1,4.6,3.1,6.9c0.2,0.3,0.3,0.7,0,1c-0.3,0.3-0.7,0.2-1,0.1c-0.7-0.2-1.4-0.4-2.1-0.6c-1.7-0.4-3.1,0.2-3.9,1.7
		c-0.4,0.7-0.7,1.4-1,2.1c-0.1,0.2-0.3,0.4-0.5,0.6C127.1,58.8,127,58.8,126.8,58.8z"/>
	<linearGradient id="SVGID_4_" gradientUnits="userSpaceOnUse" x1="119.501" y1="-1" x2="119.501" y2="58.3043">
		<stop  offset="2.216749e-02" style="stop-color:#B68637"/>
		<stop  offset="0.3695" style="stop-color:#F0BD78"/>
		<stop  offset="1" style="stop-color:#B68637"/>
	</linearGradient>
	<path class="st3" d="M119.5,15.4c6.2,0,11.2,5,11.2,11.2c0,6.2-5,11.2-11.2,11.2c-6.2,0-11.2-5-11.2-11.2
		C108.3,20.4,113.3,15.4,119.5,15.4z M117.8,27.7c-0.4-0.6-0.9-1.2-1.3-1.8c-0.5-0.6-1.2-0.8-1.8-0.4c-0.6,0.4-0.7,1.2-0.3,1.9
		c0.6,0.9,1.3,1.9,2,2.8c0.6,0.8,1.3,0.9,2,0.3c2.2-1.6,4.5-3.3,6.7-4.9c0.7-0.5,0.8-1.3,0.4-1.9c-0.4-0.6-1.2-0.7-1.9-0.2
		c-1,0.7-2,1.5-3,2.2C119.6,26.4,118.7,27.1,117.8,27.7z"/>
</g>
<g>
	<path class="st32" d="M45.3,93.3V93l1.2-0.2V80.2L45.3,80v-0.3h2.9v13.1l1.2,0.2v0.3H45.3z"/>
	<path class="st32" d="M53.6,92.8c-0.7-0.5-1.3-1.3-1.7-2.4c-0.4-1.1-0.6-2.4-0.6-3.9s0.2-2.9,0.6-3.9c0.4-1.1,1-1.9,1.7-2.4
		c0.7-0.5,1.6-0.8,2.6-0.8c1,0,1.8,0.3,2.6,0.8c0.7,0.5,1.3,1.3,1.7,2.4c0.4,1.1,0.6,2.4,0.6,3.9s-0.2,2.9-0.6,3.9
		c-0.4,1.1-1,1.9-1.7,2.4c-0.7,0.5-1.6,0.8-2.6,0.8C55.2,93.6,54.3,93.4,53.6,92.8z M58.2,92c0.5-0.8,0.7-2.1,0.7-3.9v-3.3
		c0-1.7-0.2-3-0.7-3.9c-0.5-0.8-1.2-1.2-2-1.2c-0.8,0-1.5,0.4-2,1.2c-0.5,0.8-0.7,2.1-0.7,3.9v3.3c0,1.7,0.2,3,0.7,3.9
		c0.5,0.8,1.2,1.2,2,1.2C57,93.2,57.7,92.8,58.2,92z"/>
	<path class="st32" d="M65.4,92.8c-0.7-0.5-1.3-1.3-1.7-2.4c-0.4-1.1-0.6-2.4-0.6-3.9s0.2-2.9,0.6-3.9c0.4-1.1,1-1.9,1.7-2.4
		c0.7-0.5,1.6-0.8,2.6-0.8c1,0,1.8,0.3,2.6,0.8c0.7,0.5,1.3,1.3,1.7,2.4c0.4,1.1,0.6,2.4,0.6,3.9s-0.2,2.9-0.6,3.9
		c-0.4,1.1-1,1.9-1.7,2.4c-0.7,0.5-1.6,0.8-2.6,0.8C67,93.6,66.2,93.4,65.4,92.8z M70,92c0.5-0.8,0.7-2.1,0.7-3.9v-3.3
		c0-1.7-0.2-3-0.7-3.9c-0.5-0.8-1.2-1.2-2-1.2c-0.8,0-1.5,0.4-2,1.2c-0.5,0.8-0.7,2.1-0.7,3.9v3.3c0,1.7,0.2,3,0.7,3.9
		c0.5,0.8,1.2,1.2,2,1.2C68.9,93.2,69.5,92.8,70,92z"/>
	<path class="st32" d="M75.3,86c-0.5-0.6-0.7-1.6-0.7-2.7s0.2-2.1,0.7-2.7s1.1-1,1.9-1c0.8,0,1.5,0.3,2,1s0.7,1.5,0.7,2.7
		s-0.2,2.1-0.7,2.7c-0.5,0.6-1.1,1-2,1C76.5,87,75.8,86.7,75.3,86z M78.3,86.1c0.2-0.4,0.3-1,0.3-1.9v-1.7c0-0.9-0.1-1.5-0.3-1.9
		s-0.6-0.6-1-0.6c-0.4,0-0.8,0.2-1,0.6c-0.2,0.4-0.4,1-0.4,1.9v1.7c0,0.9,0.1,1.5,0.4,1.9c0.2,0.4,0.6,0.6,1,0.6
		C77.7,86.6,78.1,86.4,78.3,86.1z M77.2,93.3L84,79.7h0.9L78,93.3H77.2z M82.7,92.4c-0.5-0.6-0.7-1.6-0.7-2.7s0.2-2.1,0.7-2.7
		s1.1-1,2-1c0.8,0,1.5,0.3,1.9,1s0.7,1.5,0.7,2.7s-0.2,2.1-0.7,2.7c-0.5,0.6-1.1,1-1.9,1C83.9,93.4,83.2,93.1,82.7,92.4z M85.7,92.4
		c0.2-0.4,0.4-1,0.4-1.9v-1.7c0-0.9-0.1-1.5-0.4-1.9s-0.6-0.6-1-0.6c-0.5,0-0.8,0.2-1,0.6s-0.3,1-0.3,1.9v1.7c0,0.9,0.1,1.5,0.3,1.9
		c0.2,0.4,0.6,0.6,1,0.6C85.1,93,85.5,92.8,85.7,92.4z"/>
	<path class="st32" d="M95,92.9c-0.7-0.4-1.2-0.9-1.6-1.6c-0.4-0.7-0.6-1.5-0.6-2.4c0-0.9,0.2-1.8,0.6-2.4c0.4-0.7,1-1.2,1.6-1.6
		c0.7-0.4,1.4-0.5,2.2-0.5c0.6,0,1.2,0.1,1.8,0.3c0.5,0.2,1,0.5,1.3,0.9c0.3,0.4,0.5,0.8,0.5,1.3c0,0.4-0.1,0.7-0.3,0.9
		c-0.2,0.2-0.4,0.3-0.8,0.3c-0.3,0-0.6-0.1-0.8-0.3s-0.3-0.5-0.3-0.8c0.2-0.1,0.3-0.2,0.4-0.4c0.1-0.1,0.1-0.3,0.1-0.5
		c0-0.4-0.2-0.8-0.5-1c-0.3-0.3-0.8-0.4-1.3-0.4c-0.8,0-1.4,0.3-1.9,0.9c-0.4,0.6-0.7,1.4-0.7,2.5v1.7c0,1,0.2,1.8,0.6,2.4
		c0.4,0.6,1.1,0.9,1.9,0.9c0.8,0,1.4-0.2,2-0.7c0.6-0.4,0.9-1,1.1-1.7h0.4c-0.2,0.8-0.6,1.5-1.2,2s-1.4,0.7-2.3,0.7
		C96.4,93.5,95.7,93.3,95,92.9z"/>
	<path class="st32" d="M104.3,92.9c-0.7-0.4-1.2-0.9-1.6-1.6c-0.4-0.7-0.6-1.5-0.6-2.4c0-0.9,0.2-1.7,0.6-2.4
		c0.4-0.7,0.9-1.2,1.6-1.6c0.7-0.4,1.4-0.6,2.2-0.6c0.7,0,1.4,0.2,1.9,0.5c0.6,0.3,1,0.8,1.3,1.3c0.3,0.6,0.5,1.2,0.5,1.9H104v1.7
		c0,1,0.2,1.8,0.7,2.4c0.4,0.6,1.1,0.9,1.9,0.9c0.8,0,1.5-0.2,2.1-0.7s1-1,1.1-1.7h0.4c-0.2,0.8-0.6,1.5-1.2,2
		c-0.6,0.5-1.4,0.7-2.4,0.7C105.8,93.5,105,93.3,104.3,92.9z M108.4,87.6c0-1-0.2-1.7-0.5-2.2c-0.3-0.5-0.8-0.7-1.4-0.7
		c-0.8,0-1.3,0.3-1.8,0.8c-0.4,0.5-0.7,1.2-0.7,2.1H108.4z"/>
	<path class="st32" d="M111.3,97.8l1.2-0.2V85l-1.2-0.2v-0.3h2.9v1.8c0.3-0.6,0.7-1.1,1.1-1.4c0.5-0.3,1.1-0.5,1.7-0.5
		c0.8,0,1.5,0.2,2.1,0.6c0.6,0.4,1.1,0.9,1.4,1.6c0.3,0.7,0.5,1.5,0.5,2.4s-0.2,1.7-0.5,2.4c-0.3,0.7-0.8,1.2-1.4,1.6
		c-0.6,0.4-1.3,0.6-2.1,0.6c-0.7,0-1.2-0.2-1.7-0.5c-0.5-0.3-0.9-0.8-1.1-1.4v6.1l1.6,0.2v0.3h-4.5V97.8z M119.2,89.8v-1.7
		c0-2.2-0.8-3.3-2.4-3.3c-0.5,0-1,0.1-1.4,0.4s-0.7,0.7-1,1.2c-0.2,0.5-0.4,1-0.4,1.6v1.8c0,0.6,0.1,1.1,0.3,1.6
		c0.2,0.5,0.6,0.9,1,1.2c0.4,0.3,0.9,0.5,1.4,0.5C118.5,93,119.2,92,119.2,89.8z"/>
	<path class="st32" d="M124.3,93.3V93l1.4-0.2v-7.9h-1.5l-1.5,2.8h-0.5l0.3-3.2h8l0.3,3.2h-0.5l-1.5-2.8h-1.4v7.9l1.4,0.2v0.3H124.3
		z"/>
	<path class="st32" d="M131.6,93.3V93l1.2-0.2V85l-1.2-0.2v-0.3h3.9v0.3l-1,0.2v6.6l4.3-6.3V85l-1-0.2v-0.3h3.9v0.3l-1.2,0.2v7.8
		l1.2,0.2v0.3h-3.9V93l1-0.2v-6.7l-4.3,6.3v0.4l1,0.2v0.3H131.6z"/>
	<path class="st32" d="M146.4,97.8l1.2-0.2v-4.1c-0.9,0-1.7-0.2-2.4-0.6c-0.7-0.4-1.3-0.9-1.7-1.6c-0.4-0.7-0.6-1.5-0.6-2.4
		c0-0.9,0.2-1.7,0.6-2.4c0.4-0.7,1-1.2,1.7-1.6s1.5-0.6,2.4-0.6v-4.1l-1.2-0.2v-0.3h2.9v4.6c0.9,0,1.7,0.2,2.4,0.6
		c0.7,0.4,1.3,0.9,1.7,1.6c0.4,0.7,0.6,1.5,0.6,2.4c0,0.9-0.2,1.7-0.6,2.4c-0.4,0.7-1,1.2-1.7,1.6c-0.7,0.4-1.5,0.6-2.4,0.6v4.1
		l1.2,0.2v0.3h-4.1V97.8z M147.6,84.7c-0.9,0-1.6,0.3-2.1,0.9c-0.5,0.6-0.8,1.4-0.8,2.4v1.7c0,1,0.3,1.8,0.8,2.4
		c0.5,0.6,1.2,0.9,2.1,0.9V84.7z M151.4,92.2c0.5-0.6,0.8-1.4,0.8-2.4V88c0-1-0.3-1.8-0.8-2.4c-0.5-0.6-1.2-0.9-2.1-0.9v8.4
		C150.2,93.1,150.9,92.8,151.4,92.2z"/>
	<path class="st32" d="M155.2,93.3V93l1.2-0.2V85l-1.2-0.2v-0.3h3.9v0.3l-1,0.2v6.6l4.3-6.3V85l-1-0.2v-0.3h3.9v0.3l-1.2,0.2v7.8
		l1.2,0.2v0.3h-3.9V93l1-0.2v-6.7l-4.3,6.3v0.4l1,0.2v0.3H155.2z"/>
	<path class="st32" d="M173,93.2c-0.2-0.2-0.4-0.6-0.5-1.1l-0.3-1.8c-0.1-0.5-0.3-0.9-0.5-1.1s-0.6-0.3-1-0.3h-1.6v3.9l1.2,0.2v0.3
		h-4.1V93l1.2-0.2V85l-1.2-0.2v-0.4h4.1v0.4l-1.2,0.2v3.4h1.6c0.3,0,0.5-0.1,0.7-0.3s0.3-0.5,0.4-0.9l0.3-1.2c0.1-0.6,0.3-1,0.6-1.2
		c0.2-0.3,0.6-0.4,1.1-0.4c0.4,0,0.7,0.1,1,0.3s0.3,0.5,0.3,0.8c0,0.3-0.1,0.5-0.3,0.8c-0.2,0.2-0.4,0.3-0.8,0.3
		c-0.2,0-0.3,0-0.5-0.1c0-0.1,0.1-0.2,0.1-0.3c0-0.1,0-0.3-0.1-0.4c-0.1-0.1-0.2-0.2-0.3-0.2c-0.3,0-0.5,0.2-0.5,0.5l-0.3,1.2
		c-0.1,0.5-0.3,0.9-0.6,1.1c0.7,0.1,1.3,0.2,1.6,0.5c0.3,0.3,0.6,0.7,0.7,1.3l0.3,1.5c0.1,0.4,0.2,0.6,0.2,0.7
		c0.1,0.1,0.2,0.2,0.4,0.2c0.2,0,0.4-0.1,0.6-0.3l0.3,0.3c-0.2,0.2-0.5,0.4-0.8,0.6c-0.3,0.1-0.6,0.2-0.9,0.2
		C173.7,93.5,173.3,93.4,173,93.2z"/>
	<path class="st32" d="M177.2,92.9c-0.5-0.4-0.7-0.9-0.7-1.7c0-1.1,0.4-1.8,1.3-2.3s1.9-0.7,3.1-0.7h1.1V87c0-0.6-0.1-1-0.2-1.4
		c-0.1-0.3-0.3-0.5-0.6-0.7c-0.3-0.1-0.6-0.2-1.1-0.2c-0.5,0-0.9,0.1-1.2,0.3c-0.3,0.2-0.4,0.5-0.4,0.8c0,0.3,0.2,0.5,0.5,0.6
		c0,0.3-0.1,0.5-0.3,0.7c-0.2,0.2-0.5,0.3-0.8,0.3c-0.3,0-0.6-0.1-0.8-0.3c-0.2-0.2-0.3-0.4-0.3-0.8c0-0.7,0.3-1.2,1-1.6
		s1.5-0.6,2.5-0.6c2.3,0,3.4,1,3.4,3v4.9c0,0.3,0.1,0.4,0.2,0.6c0.1,0.1,0.3,0.2,0.5,0.2c0.2,0,0.3-0.1,0.5-0.2s0.2-0.3,0.2-0.5h0.4
		c0,0.4-0.1,0.7-0.4,0.9s-0.6,0.3-1.1,0.3c-0.5,0-1-0.2-1.3-0.5c-0.4-0.3-0.5-0.8-0.6-1.4c-0.3,0.6-0.7,1-1.2,1.4
		c-0.6,0.3-1.2,0.5-1.9,0.5C178.2,93.5,177.6,93.3,177.2,92.9z M180.8,92.4c0.3-0.2,0.6-0.4,0.8-0.8c0.2-0.3,0.4-0.8,0.4-1.2v-1.8
		h-1.1c-0.9,0-1.6,0.2-2.1,0.6c-0.5,0.4-0.7,1-0.7,1.7c0,0.6,0.1,1.1,0.4,1.3c0.3,0.3,0.7,0.4,1.3,0.4
		C180.2,92.7,180.5,92.6,180.8,92.4z"/>
	<path class="st32" d="M187.8,93.3V93l1.4-0.2v-7.9h-1.5l-1.5,2.8h-0.5l0.3-3.2h8l0.3,3.2h-0.5l-1.5-2.8h-1.4v7.9l1.4,0.2v0.3H187.8
		z"/>
	<path class="st32" d="M70.9,113.3c-0.6-0.4-0.9-0.8-0.9-1.4c0-0.3,0.1-0.6,0.3-0.8c0.2-0.2,0.5-0.3,0.8-0.3c0.2,0,0.4,0.1,0.6,0.2
		s0.3,0.3,0.4,0.5c-0.2,0.2-0.3,0.5-0.3,0.7c0,0.4,0.2,0.7,0.5,1c0.3,0.3,0.8,0.4,1.4,0.4c0.7,0,1.2-0.2,1.6-0.5
		c0.4-0.4,0.6-0.9,0.6-1.6v-0.2c0-0.6-0.2-1.1-0.7-1.4s-1-0.5-1.7-0.5h-1v-0.4h1c0.6,0,1.1-0.2,1.5-0.5c0.3-0.3,0.5-0.8,0.5-1.4V107
		c0-1.3-0.6-1.9-1.8-1.9c-0.6,0-1.2,0.2-1.8,0.5l-1,2.4h-0.4l0.2-3.2l1,0.5c0.6-0.3,1.3-0.5,2-0.5c1.3,0,2.2,0.2,2.8,0.6
		c0.6,0.4,0.9,0.9,0.9,1.7c0,0.5-0.2,1-0.6,1.3c-0.4,0.4-1,0.6-1.8,0.7v0c0.9,0.1,1.6,0.3,2.1,0.7c0.5,0.4,0.7,0.9,0.7,1.6
		c0,0.8-0.3,1.4-1,1.9c-0.7,0.4-1.7,0.7-3.1,0.7C72.4,113.9,71.4,113.7,70.9,113.3z"/>
	<path class="st32" d="M79.9,113.3c-0.5-0.4-0.7-0.9-0.7-1.7c0-1.1,0.4-1.8,1.3-2.3c0.9-0.4,1.9-0.7,3.1-0.7h1.1v-1.3
		c0-0.6-0.1-1-0.2-1.4c-0.1-0.3-0.3-0.5-0.6-0.7c-0.3-0.1-0.6-0.2-1.1-0.2c-0.5,0-0.9,0.1-1.2,0.3c-0.3,0.2-0.4,0.5-0.4,0.8
		c0,0.3,0.2,0.5,0.5,0.6c0,0.3-0.1,0.5-0.3,0.7c-0.2,0.2-0.5,0.3-0.8,0.3c-0.3,0-0.6-0.1-0.8-0.3s-0.3-0.4-0.3-0.8
		c0-0.7,0.3-1.2,1-1.6s1.5-0.6,2.5-0.6c2.3,0,3.4,1,3.4,3v4.9c0,0.3,0.1,0.4,0.2,0.6c0.1,0.1,0.3,0.2,0.5,0.2c0.2,0,0.3-0.1,0.5-0.2
		c0.1-0.1,0.2-0.3,0.2-0.5h0.4c0,0.4-0.1,0.7-0.4,0.9s-0.6,0.3-1.1,0.3c-0.5,0-1-0.2-1.3-0.4c-0.4-0.3-0.5-0.8-0.6-1.4
		c-0.3,0.6-0.7,1-1.3,1.4c-0.6,0.3-1.2,0.5-1.9,0.5C81,113.9,80.4,113.7,79.9,113.3z M83.6,112.8c0.3-0.2,0.6-0.4,0.8-0.8
		c0.2-0.3,0.4-0.8,0.4-1.2V109h-1.1c-0.9,0-1.6,0.2-2.1,0.6s-0.7,1-0.7,1.7c0,0.6,0.1,1.1,0.4,1.3c0.3,0.3,0.7,0.4,1.3,0.4
		C82.9,113.1,83.2,113,83.6,112.8z"/>
	<path class="st32" d="M99.4,113.6c-0.2-0.2-0.4-0.6-0.5-1.1l-0.3-1.8c-0.1-0.5-0.3-0.9-0.5-1.1c-0.2-0.2-0.6-0.3-1-0.3h-1.6v3.9
		l1.2,0.2v0.3h-4.1v-0.3l1.2-0.2v-7.8l-1.2-0.2v-0.4h4.1v0.4l-1.2,0.2v3.4h1.6c0.3,0,0.5-0.1,0.7-0.3c0.2-0.2,0.3-0.5,0.4-0.9
		l0.3-1.2c0.1-0.6,0.3-1,0.6-1.2s0.6-0.4,1.1-0.4c0.4,0,0.7,0.1,1,0.3c0.2,0.2,0.3,0.5,0.3,0.8c0,0.3-0.1,0.5-0.3,0.8
		c-0.2,0.2-0.4,0.3-0.8,0.3c-0.2,0-0.3,0-0.5-0.1c0-0.1,0.1-0.2,0.1-0.3c0-0.1,0-0.3-0.1-0.4c-0.1-0.1-0.2-0.2-0.3-0.2
		c-0.3,0-0.5,0.2-0.5,0.5l-0.3,1.2c-0.1,0.5-0.3,0.9-0.6,1.1c0.7,0.1,1.3,0.3,1.6,0.5s0.6,0.7,0.7,1.3l0.3,1.5
		c0.1,0.4,0.2,0.6,0.2,0.7c0.1,0.1,0.2,0.2,0.4,0.2c0.2,0,0.4-0.1,0.6-0.3l0.3,0.3c-0.2,0.2-0.5,0.4-0.8,0.6
		c-0.3,0.1-0.6,0.2-0.9,0.2C100,113.9,99.6,113.8,99.4,113.6z"/>
	<path class="st32" d="M103.5,113.3c-0.5-0.4-0.7-0.9-0.7-1.7c0-1.1,0.4-1.8,1.3-2.3c0.9-0.4,1.9-0.7,3.1-0.7h1.1v-1.3
		c0-0.6-0.1-1-0.2-1.4c-0.1-0.3-0.3-0.5-0.6-0.7c-0.3-0.1-0.6-0.2-1.1-0.2c-0.5,0-0.9,0.1-1.2,0.3c-0.3,0.2-0.4,0.5-0.4,0.8
		c0,0.3,0.2,0.5,0.5,0.6c0,0.3-0.1,0.5-0.3,0.7c-0.2,0.2-0.5,0.3-0.8,0.3c-0.3,0-0.6-0.1-0.8-0.3s-0.3-0.4-0.3-0.8
		c0-0.7,0.3-1.2,1-1.6s1.5-0.6,2.5-0.6c2.3,0,3.4,1,3.4,3v4.9c0,0.3,0.1,0.4,0.2,0.6c0.1,0.1,0.3,0.2,0.5,0.2c0.2,0,0.3-0.1,0.5-0.2
		c0.1-0.1,0.2-0.3,0.2-0.5h0.4c0,0.4-0.1,0.7-0.4,0.9s-0.6,0.3-1.1,0.3c-0.5,0-1-0.2-1.3-0.4c-0.4-0.3-0.5-0.8-0.6-1.4
		c-0.3,0.6-0.7,1-1.3,1.4c-0.6,0.3-1.2,0.5-1.9,0.5C104.6,113.9,104,113.7,103.5,113.3z M107.2,112.8c0.3-0.2,0.6-0.4,0.8-0.8
		c0.2-0.3,0.4-0.8,0.4-1.2V109h-1.1c-0.9,0-1.6,0.2-2.1,0.6s-0.7,1-0.7,1.7c0,0.6,0.1,1.1,0.4,1.3c0.3,0.3,0.7,0.4,1.3,0.4
		C106.6,113.1,106.9,113,107.2,112.8z"/>
	<path class="st32" d="M116.7,113.4l1.7-0.2v-3.3c-0.3,0.2-0.7,0.3-1.2,0.4c-0.5,0.1-1,0.2-1.6,0.2c-0.9,0-1.7-0.2-2.2-0.6
		s-0.8-1-0.8-1.9v-2.7l-1.2-0.2v-0.3h3.9v0.3l-1,0.2v2.7c0,0.6,0.1,1.1,0.4,1.4c0.3,0.3,0.7,0.5,1.3,0.5c0.5,0,1-0.1,1.4-0.2
		c0.4-0.1,0.7-0.2,1-0.4v-4l-1-0.2v-0.3h3.9v0.3l-1.2,0.2v7.8l1.2,0.2v0.3h-4.6V113.4z"/>
	<path class="st32" d="M124.6,113.3c-0.7-0.4-1.2-0.9-1.6-1.6s-0.6-1.5-0.6-2.4s0.2-1.7,0.6-2.4c0.4-0.7,0.9-1.2,1.6-1.6
		c0.7-0.4,1.4-0.6,2.2-0.6c0.7,0,1.4,0.2,1.9,0.5s1,0.8,1.3,1.3s0.5,1.2,0.5,1.9h-6.3v1.7c0,1,0.2,1.8,0.7,2.4
		c0.4,0.6,1.1,0.9,1.9,0.9c0.8,0,1.5-0.2,2.1-0.7c0.6-0.4,1-1,1.1-1.7h0.4c-0.2,0.8-0.6,1.5-1.2,2c-0.6,0.5-1.4,0.7-2.4,0.7
		C126.1,113.9,125.3,113.7,124.6,113.3z M128.7,108c0-1-0.2-1.7-0.5-2.2c-0.3-0.5-0.8-0.7-1.4-0.7c-0.8,0-1.3,0.3-1.8,0.8
		s-0.7,1.2-0.7,2.1H128.7z"/>
	<path class="st32" d="M134.1,113.3c-0.7-0.4-1.2-0.9-1.6-1.6c-0.4-0.7-0.6-1.5-0.6-2.4c0-0.9,0.2-1.8,0.6-2.4
		c0.4-0.7,1-1.2,1.6-1.6s1.4-0.5,2.2-0.5c0.6,0,1.2,0.1,1.8,0.3c0.5,0.2,1,0.5,1.3,0.9c0.3,0.4,0.5,0.8,0.5,1.3
		c0,0.4-0.1,0.7-0.3,0.9s-0.4,0.3-0.8,0.3c-0.3,0-0.6-0.1-0.8-0.3c-0.2-0.2-0.3-0.5-0.3-0.8c0.2-0.1,0.3-0.2,0.4-0.4
		c0.1-0.1,0.1-0.3,0.1-0.5c0-0.4-0.2-0.8-0.5-1c-0.3-0.3-0.8-0.4-1.3-0.4c-0.8,0-1.4,0.3-1.9,0.9s-0.7,1.4-0.7,2.5v1.7
		c0,1,0.2,1.8,0.6,2.4c0.4,0.6,1.1,0.9,1.9,0.9c0.8,0,1.4-0.2,2-0.7c0.6-0.4,0.9-1,1.1-1.7h0.4c-0.2,0.8-0.6,1.5-1.2,2
		c-0.6,0.5-1.4,0.7-2.3,0.7C135.6,113.9,134.8,113.7,134.1,113.3z"/>
	<path class="st32" d="M143,113.7v-0.3l1.4-0.2v-7.9h-1.5l-1.5,2.8h-0.5l0.3-3.2h8l0.3,3.2H149l-1.5-2.8H146v7.9l1.4,0.2v0.3H143z"
		/>
	<path class="st32" d="M150.2,113.4l1.2-0.2v-7.8l-1.2-0.2v-0.3h4.7c1.2,0,2,0.2,2.5,0.5c0.5,0.3,0.7,0.8,0.7,1.6c0,1.1-0.7,1.7-2,2
		v0.1c1.7,0.2,2.6,1,2.6,2.3c0,0.8-0.3,1.4-0.9,1.8c-0.6,0.4-1.4,0.6-2.4,0.6h-5.2V113.4z M154.5,108.9c0.6,0,1-0.2,1.4-0.5
		c0.3-0.3,0.5-0.8,0.5-1.4V107c0-0.6-0.2-1-0.5-1.2s-0.8-0.4-1.4-0.4h-1.3v3.6H154.5z M154.9,113.3c0.6,0,1.1-0.2,1.4-0.5
		c0.3-0.3,0.5-0.8,0.5-1.4v-0.1c0-0.6-0.2-1.1-0.5-1.5c-0.3-0.3-0.8-0.5-1.5-0.5h-1.8v4H154.9z"/>
	<path class="st32" d="M162.3,113.3c-0.7-0.4-1.2-0.9-1.6-1.6c-0.4-0.7-0.6-1.5-0.6-2.4c0-0.9,0.2-1.7,0.6-2.4
		c0.4-0.7,0.9-1.2,1.6-1.6c0.7-0.4,1.4-0.6,2.2-0.6c0.8,0,1.6,0.2,2.2,0.6c0.7,0.4,1.2,0.9,1.6,1.6c0.4,0.7,0.6,1.5,0.6,2.4
		c0,0.9-0.2,1.7-0.6,2.4c-0.4,0.7-0.9,1.2-1.6,1.6c-0.7,0.4-1.4,0.6-2.2,0.6C163.7,113.9,162.9,113.7,162.3,113.3z M166.4,112.6
		c0.4-0.6,0.6-1.4,0.6-2.4v-1.7c0-1-0.2-1.8-0.6-2.4c-0.4-0.6-1.1-0.9-1.9-0.9s-1.5,0.3-1.9,0.9c-0.4,0.6-0.6,1.4-0.6,2.4v1.7
		c0,1,0.2,1.8,0.6,2.4c0.4,0.6,1.1,0.9,1.9,0.9S166,113.2,166.4,112.6z"/>
</g>
</svg>
